# xmcd
# Copyright (C) 1995-1998 Ti Kan
#
# Track frame offsets:
#       150
#       8850
#       27150
#       39150
#       57150
#       70800
#       82050
#       99150
#       121350
#
# Disc length: 2126 seconds
#
# Revision: 0
# Processed by: cddbd v1.5.2PL0 Copyright (c) Steve Scherf et al.
# Submitted via: CD-Import v1.0
#
DISCID=66084c09
DTITLE=George Vaine - George Vaine
DYEAR=06
DGENRE=
TTITLE0=Surrender To The Footlights
TTITLE1=Norwegian Girl
TTITLE2=Fellow Sufferers
TTITLE3=Ida Belle
TTITLE4=The Western Night
TTITLE5=May I Ask
TTITLE6=Castle Made Of Wood
TTITLE7=The Last Oil
TTITLE8=A Touch Of Decay
EXTD=
EXTT0=
EXTT1=
EXTT2=
EXTT3=
EXTT4=
EXTT5=
EXTT6=
EXTT7=
EXTT8=
PLAYORDER=
